<svg viewBox="0 0 326 160" xmlns="http://www.w3.org/2000/svg" style="fill-rule:evenodd;clip-rule:evenodd;stroke-linecap:round;stroke-linejoin:round;stroke-miterlimit:1.5;">
    <g transform="matrix(1,0,0,1,-201.414,-179.922)">
        <g>
            <path d="M260.163,324.692C260.163,305.542 260.834,289.685 262.178,270.582C262.888,260.489 260.987,250.85 260.914,240.851C260.859,233.155 252.474,214.098 250.682,212.999C241.325,207.259 236.859,203.727 224.334,205.351C206.509,207.662 202.209,223.994 208.215,238.504C210.98,245.184 222.055,253.562 224.677,257.608C231.143,267.591 229.196,268.601 232.2,281.821C234.119,290.266 230.717,319.106 233.955,325.53C236.435,330.45 236.431,335.484 246.185,335.132C256.277,334.769 260.163,327.541 260.163,324.692Z" style="fill:none;stroke:black;stroke-width:8.5px;"/>
            <g transform="matrix(-1,0,0,1,728.196,0)">
                <path d="M260.163,324.692C260.163,305.542 260.834,289.685 262.178,270.582C262.888,260.489 260.987,250.85 260.914,240.851C260.859,233.155 252.474,214.098 250.682,212.999C241.325,207.259 236.859,203.727 224.334,205.351C206.509,207.662 202.209,223.994 208.215,238.504C210.98,245.184 222.055,253.562 224.677,257.608C231.143,267.591 229.196,268.601 232.2,281.821C234.119,290.266 230.717,319.106 233.955,325.53C236.435,330.45 236.431,335.484 246.185,335.132C256.277,334.769 260.163,327.541 260.163,324.692Z" style="fill:none;stroke:black;stroke-width:8.5px;"/>
            </g>
            <path d="M262.912,285.75C265.123,285.75 267.089,284.223 269.257,283.795C278.666,281.938 338.7,279.259 364.377,278.954C390.42,278.644 460.167,285.103 465.86,288.865" style="fill:none;stroke:black;stroke-width:8.5px;"/>
            <path d="M260.163,324.692C274.881,324.692 444.992,324.722 468.591,325.145" style="fill:none;stroke:black;stroke-width:8.5px;"/>
            <path d="M364.377,278.943L364.377,193.879" style="fill:none;stroke:black;stroke-width:8.5px;"/>
            <path d="M364.377,193.879C364.377,193.879 405.435,183.882 425.154,184.179C457.168,184.661 468.897,193.711 491.71,205.749" style="fill:none;stroke:black;stroke-width:8.5px;"/>
            <g transform="matrix(-1,0,0,1,728.763,0)">
                <path d="M364.377,193.879C364.377,193.879 405.435,183.882 425.154,184.179C457.168,184.661 468.897,193.711 491.71,205.749" style="fill:none;stroke:black;stroke-width:8.5px;"/>
            </g>
        </g>
    </g>
</svg>